<?xml version="1.0" encoding="UTF-8" standalone="no"?>
<svg
   xmlns:dc="http://purl.org/dc/elements/1.1/"
   xmlns:cc="http://creativecommons.org/ns#"
   xmlns:rdf="http://www.w3.org/1999/02/22-rdf-syntax-ns#"
   xmlns:svg="http://www.w3.org/2000/svg"
   xmlns="http://www.w3.org/2000/svg"
   xmlns:sodipodi="http://sodipodi.sourceforge.net/DTD/sodipodi-0.dtd"
   xmlns:inkscape="http://www.inkscape.org/namespaces/inkscape"
   data-v-1084b650=""
   viewBox="0 0 19200 19200"
   version="1.1"
   id="svg13"
   sodipodi:docname="favicon.svg"
   width="64"
   height="64"
   inkscape:version="0.92.5 (2060ec1f9f, 2020-04-08)">
  <metadata
     id="metadata19">
    <rdf:RDF>
      <cc:Work
         rdf:about="">
        <dc:format>image/svg+xml</dc:format>
        <dc:type
           rdf:resource="http://purl.org/dc/dcmitype/StillImage" />
        <dc:title></dc:title>
      </cc:Work>
    </rdf:RDF>
  </metadata>
  <defs
     id="defs17" />
  <sodipodi:namedview
     pagecolor="#ffffff"
     bordercolor="#666666"
     borderopacity="1"
     objecttolerance="10"
     gridtolerance="10"
     guidetolerance="10"
     inkscape:pageopacity="0"
     inkscape:pageshadow="2"
     inkscape:window-width="1600"
     inkscape:window-height="836"
     id="namedview15"
     showgrid="false"
     inkscape:zoom="6.2933333"
     inkscape:cx="78.246838"
     inkscape:cy="27.15931"
     inkscape:window-x="0"
     inkscape:window-y="27"
     inkscape:window-maximized="1"
     inkscape:current-layer="svg13"
     units="px" />
  <!---->
  <!---->
  <rect
     data-v-1084b650=""
     x="0"
     y="19049.9"
     width="300"
     height="150.09991"
     class="logo-background-square"
     id="rect2"
     style="fill:#ffffff;stroke-width:0.99999905" />
  <!---->
  <!---->
  <g
     data-v-1084b650=""
     id="640fb903-7c97-3a8b-d0a7-369102908d0a"
     transform="matrix(0.85,0,0,0.85,1690.9322,1332.4577)"
     style="fill:#ffd7d7;stroke:none">
    <svg
       viewBox="-205 207 100 100"
       version="1.1"
       id="svg10"
       width="100%"
       height="100%">
      <switch
         id="switch8">
        <g
           id="g6">
          <path
             d="m -155,298.8 c 11.2,0 21.7,-4.3 29.6,-12.2 7.9,-7.9 12.2,-18.4 12.2,-29.6 0,-11.2 -4.3,-21.7 -12.2,-29.6 -7.9,-7.9 -18.4,-12.2 -29.6,-12.2 -11.2,0 -21.7,4.3 -29.6,12.2 -7.9,7.9 -12.2,18.4 -12.2,29.6 0,11.2 4.3,21.7 12.2,29.6 7.9,7.9 18.4,12.2 29.6,12.2 z m 2.4,-7.1 c -0.8,0.1 -1.6,0.1 -2.4,0.1 -1.1,0 -2.2,-0.1 -3.3,-0.2 -3.6,-5.6 -6.3,-11.6 -7.9,-17.9 h 17.7 c 0.6,1.5 1.7,2.9 3,3.8 -1.7,5 -4.1,9.7 -7.1,14.2 z m 9.5,-2 c 1.9,-3.5 3.4,-7 4.6,-10.7 2.9,-0.6 5.2,-2.6 6.3,-5.3 h 7.7 c -4,7.3 -10.7,13 -18.6,16 z m 22.8,-32.7 c 0,3.3 -0.5,6.5 -1.3,9.6 h -10.8 c -0.6,-1.3 -1.6,-2.5 -2.8,-3.4 0.2,-2.2 0.3,-4.4 0.3,-6.6 0,-3.1 -0.2,-6.2 -0.6,-9.2 h 13.8 c 1,3 1.4,6.3 1.4,9.6 z m -4.2,-16.7 h -12.2 c -1.3,-5.5 -3.2,-10.7 -5.8,-15.7 7.6,2.9 14,8.6 18,15.7 z m -17.4,16.3 c 0,1.7 -0.1,3.4 -0.2,5.1 -2.8,0.6 -5.1,2.4 -6.2,4.9 h -19.3 c -0.4,-3 -0.7,-6.1 -0.7,-9.1 0,-1.9 0.1,-3.8 0.3,-5.7 2.6,-0.5 4.7,-2.2 6,-4.4 h 19.5 c 0.4,3 0.6,6.1 0.6,9.2 z m -15.7,-34.2 c 0.9,-0.1 1.8,-0.1 2.6,-0.1 1,0 2,0 3,0.1 3.6,5.6 6.3,11.6 7.9,17.9 h -17.4 c -0.6,-1.7 -1.7,-3.2 -3.1,-4.3 1.8,-4.8 4.1,-9.3 7,-13.6 z m -9.5,2 c -1.7,3.2 -3.2,6.6 -4.4,10 -3.1,0.6 -5.6,2.9 -6.6,5.8 h -7.3 c 3.9,-7.1 10.4,-12.8 18.3,-15.8 z m -22.6,32.6 c 0,-3.3 0.5,-6.6 1.4,-9.6 h 10.9 c 0.6,1.1 1.5,2.1 2.5,2.9 -0.2,2.4 -0.4,4.8 -0.4,7.2 0,3.1 0.2,6.1 0.6,9.1 h -13.6 c -1,-3.1 -1.4,-6.3 -1.4,-9.6 z m 16.2,16.6 c 1.3,5.4 3.2,10.7 5.8,15.7 -7.6,-3 -13.9,-8.6 -17.8,-15.7 z"
             id="path4"
             inkscape:connector-curvature="0" />
        </g>
      </switch>
    </svg>
  </g>
  <path
     style="fill:#80b3ff;fill-opacity:1;stroke-width:1"
     d="M 29.115482,54.053918 C 19.489887,52.428641 12.065541,45.03356 10.446249,35.458275 c -0.353359,-2.089502 -0.353359,-5.537617 0,-7.627119 0.798565,-4.72212 2.920744,-8.814728 6.3479,-12.241884 4.401201,-4.401201 9.739614,-6.5887614 16.074404,-6.5869262 4.339627,0.00126 8.002845,0.9820681 11.580615,3.1006612 4.505254,2.667805 8.049928,6.972935 9.820629,11.927496 0.892821,2.498178 1.143451,4.168948 1.142202,7.614212 -9.53e-4,2.502145 -0.0639,3.465191 -0.2962,4.528602 -0.968128,4.431777 -3.028723,8.300871 -6.05858,11.375948 -3.4952,3.547363 -7.649364,5.699358 -12.552966,6.502851 -1.734663,0.284237 -5.710324,0.285208 -7.388771,0.0018 z m 4.918479,-3.575809 c 0.554992,-0.297024 2.411633,-3.650473 3.410109,-6.159315 l 0.584188,-1.467869 -0.560601,-0.560603 c -0.308331,-0.30833 -0.670945,-0.773981 -0.805809,-1.034778 l -0.245205,-0.474176 h -4.842318 c -2.663275,0 -4.842318,0.03165 -4.842318,0.07034 0,0.03869 0.242217,0.807356 0.538259,1.708157 0.7086,2.156138 1.810196,4.636222 2.844473,6.403914 0.689276,1.178049 0.919303,1.447022 1.308854,1.53046 0.756578,0.162047 2.295205,0.152542 2.610368,-0.01613 z m 7.056987,-1.824822 c 2.484453,-1.267721 4.700016,-2.995657 6.207631,-4.84138 0.897664,-1.098982 1.996988,-2.699668 1.996988,-2.907742 0,-0.06754 -0.918868,-0.122797 -2.041926,-0.122797 h -2.041928 l -0.493203,0.793398 c -0.510932,0.821919 -1.660774,1.69375 -2.448177,1.856252 -0.337678,0.06969 -0.488764,0.248264 -0.698046,0.825048 -0.484339,1.334845 -1.513024,3.743434 -1.892223,4.430493 -0.245116,0.444117 -0.305116,0.675318 -0.175256,0.675318 0.108603,0 0.822367,-0.318865 1.58614,-0.70859 z m -15.77866,-0.76122 C 24.47975,46.087218 23.609357,43.721625 23.173419,42.078952 l -0.365442,-1.377033 -3.298647,-0.043 -3.298648,-0.043 0.440262,0.758044 c 1.11482,1.919496 3.211235,4.199366 5.108694,5.55575 0.948785,0.678232 3.763252,2.255117 4.048438,2.26825 0.0599,0.0028 -0.163206,-0.584894 -0.495788,-1.305895 z M 22.033257,36.133593 c -0.07222,-0.371425 -0.134991,-2.357362 -0.139482,-4.413194 l -0.0082,-3.737876 -0.700191,-0.830451 -0.700191,-0.83045 h -2.829706 c -3.281511,0 -2.995001,-0.161692 -3.389043,1.912602 -0.433107,2.279939 -0.324835,5.792245 0.245959,7.978818 l 0.155548,0.595868 h 3.748294 3.748294 z m 14.750376,0.220868 c 0.441643,-0.747643 1.472502,-1.571645 2.350455,-1.878801 l 0.824833,-0.288572 -0.07921,-3.654661 c -0.04357,-2.010063 -0.131352,-3.779793 -0.195075,-3.932733 -0.107005,-0.256818 -0.513907,-0.278072 -5.323365,-0.278072 h -5.207502 l -0.59033,0.720421 c -0.593709,0.724542 -1.9977,1.658787 -2.497009,1.661563 -0.197286,0.0011 -0.297782,0.197848 -0.379544,0.743085 -0.118255,0.788579 0.02512,5.977325 0.18916,6.8458 l 0.09755,0.516419 h 5.270798 5.270798 z m 14.308727,0.238381 c 0.0456,-0.118838 0.205684,-0.950285 0.355735,-1.84766 0.347703,-2.079416 0.249602,-5.74077 -0.195896,-7.311272 l -0.292981,-1.032839 h -3.731721 -3.731719 l 0.04742,0.476695 c 0.02608,0.262182 0.07061,2.207233 0.09894,4.322336 l 0.05152,3.845641 0.655825,0.745057 c 0.360704,0.409781 0.655825,0.806493 0.655825,0.881583 0,0.07509 1.350932,0.136527 3.002068,0.136527 2.38435,0 3.019128,-0.04446 3.08498,-0.216068 z M 20.4466,22.089804 c 0.164058,-0.653662 1.827743,-2.220098 2.605377,-2.453083 0.365605,-0.109538 0.722514,-0.276968 0.793131,-0.372066 0.07062,-0.0951 0.402535,-0.852196 0.737595,-1.68244 0.33506,-0.830243 0.849366,-1.992187 1.142903,-2.582097 0.293536,-0.58991 0.492364,-1.072564 0.44184,-1.072564 -0.05052,0 -0.633,0.250022 -1.294392,0.555604 -2.84345,1.313755 -5.941242,3.945264 -7.63875,6.488958 -0.456878,0.684626 -0.830687,1.310288 -0.830687,1.390361 0,0.08035 0.882293,0.145586 1.969003,0.145586 h 1.969003 z m 18.289729,0.219636 c -1.167726,-3.742397 -2.15395,-6.035796 -3.689857,-8.580509 l -0.551458,-0.913665 h -1.566812 -1.566813 l -0.790993,1.310911 c -0.927609,1.537327 -2.495952,4.690889 -2.743041,5.5156 -0.16091,0.537067 -0.138791,0.611491 0.331278,1.114702 0.277036,0.296567 0.642864,0.811996 0.812954,1.145398 l 0.309252,0.606186 h 4.758733 c 3.734107,0 4.745388,-0.04277 4.696757,-0.198623 z m 10.49697,-0.05225 c -0.375451,-0.978409 -2.56681,-3.644569 -4.017114,-4.8875 -1.569202,-1.344829 -5.139146,-3.492677 -5.389341,-3.242483 -0.03787,0.03787 0.246365,0.779815 0.631636,1.648764 0.820858,1.851382 1.577493,3.948511 1.927728,5.342991 0.137011,0.545519 0.279586,1.081233 0.316832,1.190476 0.05124,0.150295 0.865654,0.198623 3.347124,0.198623 2.922501,0 3.268926,-0.0273 3.183135,-0.250871 z"
     id="path117"
     inkscape:connector-curvature="0"
     transform="scale(300)" />
</svg>
