<?xml version="1.0" encoding="UTF-8" standalone="no"?>
<!-- Created with Inkscape (http://www.inkscape.org/) -->

<svg
   xmlns:dc="http://purl.org/dc/elements/1.1/"
   xmlns:cc="http://creativecommons.org/ns#"
   xmlns:rdf="http://www.w3.org/1999/02/22-rdf-syntax-ns#"
   xmlns:svg="http://www.w3.org/2000/svg"
   xmlns="http://www.w3.org/2000/svg"
   xmlns:sodipodi="http://sodipodi.sourceforge.net/DTD/sodipodi-0.dtd"
   xmlns:inkscape="http://www.inkscape.org/namespaces/inkscape"
   width="484.28955"
   height="80"
   viewBox="0 0 128.13494 21.166668"
   version="1.1"
   id="svg26"
   inkscape:version="0.92.5 (2060ec1f9f, 2020-04-08)"
   sodipodi:docname="header_logo-light.svg">
  <defs
     id="defs20" />
  <sodipodi:namedview
     id="base"
     pagecolor="#ffffff"
     bordercolor="#666666"
     borderopacity="1.0"
     inkscape:pageopacity="0.0"
     inkscape:pageshadow="2"
     inkscape:zoom="1.979899"
     inkscape:cx="350.52206"
     inkscape:cy="119.22149"
     inkscape:document-units="mm"
     inkscape:current-layer="layer1"
     showgrid="false"
     units="px"
     inkscape:window-width="1600"
     inkscape:window-height="836"
     inkscape:window-x="0"
     inkscape:window-y="27"
     inkscape:window-maximized="1" />
  <metadata
     id="metadata23">
    <rdf:RDF>
      <cc:Work
         rdf:about="">
        <dc:format>image/svg+xml</dc:format>
        <dc:type
           rdf:resource="http://purl.org/dc/dcmitype/StillImage" />
        <dc:title></dc:title>
      </cc:Work>
    </rdf:RDF>
  </metadata>
  <g
     inkscape:label="Calque 1"
     inkscape:groupmode="layer"
     id="layer1"
     transform="translate(-1.5955182,-275.98169)">
    <g
       id="g104"
       transform="matrix(0.26458333,0,0,0.26458333,1.6306144,276.2363)">
      <g
         transform="matrix(4.5696877,0,0,4.5696877,96.32992,-2.2310694)"
         id="35fa3215-a46c-2dc7-0ca7-44149903aade"
         data-v-5f19e91b=""
         style="fill:#000000">
        <path
           id="path80"
           d="m 5.41,12.67 v 0 q -2.18,0 -3.65,-1.47 v 0 0 Q 0.29,9.73 0.29,7.53 v 0 0 q 0,-2.16 1.47,-3.64 v 0 0 Q 3.23,2.42 5.41,2.42 v 0 0 q 2.19,0 3.76,1.37 v 0 L 7.81,5.28 v 0 Q 6.76,4.46 5.41,4.46 v 0 0 Q 4.03,4.47 3.18,5.33 v 0 0 Q 2.34,6.18 2.34,7.51 v 0 0 q 0,1.43 0.85,2.27 v 0 0 q 0.85,0.84 2.23,0.84 v 0 0 q 1.11,0 1.7,-0.43 v 0 -1.76 L 5.76,8.44 V 6.52 h 3.41 v 4.79 0 q -1.56,1.36 -3.76,1.36 z m 7.43,-6.84 v 0.76 0 q 0.74,-0.75 1.79,-0.75 v 0 0 q 0.33,0 0.63,0.05 v 0 l -0.3,1.89 v 0 Q 14.63,7.48 14.01,7.46 v 0 0 q -0.7,0.05 -1.17,1.01 v 0 4.2 H 10.93 V 6.04 Z m 6.77,6.91 v 0 q -1.49,0 -2.49,-1 v 0 0 q -0.99,-1 -0.99,-2.48 v 0 0 q 0,-1.49 0.99,-2.49 v 0 0 q 1,-1 2.49,-1 v 0 0 q 1.49,0 2.49,1 v 0 0 q 1,1 1,2.49 v 0 0 q 0,1.49 -1,2.48 v 0 0 q -1,1 -2.49,1 z m 0,-1.65 v 0 0 q 0.77,0 1.26,-0.53 v 0 0 q 0.49,-0.52 0.49,-1.3 v 0 0 q 0,-0.78 -0.49,-1.3 v 0 0 Q 20.38,7.43 19.6,7.43 v 0 0 q -0.77,0 -1.26,0.53 v 0 0 q -0.48,0.52 -0.48,1.3 v 0 0 q 0,0.78 0.48,1.3 v 0 0 q 0.49,0.53 1.27,0.53 z m 8.91,-0.84 v 0 -4.42 h 1.91 v 6.84 h -1.91 v -0.62 0 q -0.69,0.62 -1.64,0.62 v 0 0 q -1.3,0 -1.98,-0.79 v 0 0 q -0.69,-0.79 -0.69,-1.81 v 0 -4.24 h 1.92 v 3.76 0 q 0,0.68 0.34,1.06 v 0 0 q 0.34,0.38 1.03,0.4 v 0 0 q 0.6,-0.04 1.02,-0.8 z m 5.45,5.3 -1.91,-0.01 v -9.5 l 1.91,-0.21 v 0.55 0 q 0.77,-0.55 1.51,-0.55 v 0 0 q 1.57,0 2.49,1.03 v 0 0 q 0.93,1.02 0.93,2.39 v 0 0 q 0,1.37 -0.93,2.39 v 0 0 q -0.92,1.03 -2.49,1.03 v 0 0 Q 34.45,12.6 33.97,12.11 v 0 z m 0,-6.92 v 0 1.11 0 q 0.14,1.15 1.44,1.35 v 0 0 q 1.64,-0.13 1.85,-1.7 v 0 0 Q 37.19,7.47 35.41,7.4 v 0 0 q -1.3,0.21 -1.44,1.23 z m 9.38,4.11 v 0 q -1.49,0 -2.48,-1 v 0 0 q -1,-1 -1,-2.48 v 0 0 q 0,-1.49 1,-2.49 v 0 0 q 0.99,-1 2.48,-1 v 0 0 q 1.49,0 2.49,1 v 0 0 q 1,1 1,2.49 v 0 0 q 0,1.49 -1,2.48 v 0 0 q -1,1 -2.49,1 z m 0,-1.65 v 0 0 q 0.78,0 1.26,-0.53 v 0 0 q 0.49,-0.52 0.49,-1.3 v 0 0 q 0,-0.78 -0.49,-1.3 v 0 0 Q 44.13,7.43 43.34,7.43 v 0 0 q -0.77,0 -1.26,0.53 v 0 0 Q 41.6,8.48 41.6,9.26 v 0 0 q 0,0.78 0.48,1.3 v 0 0 q 0.49,0.53 1.27,0.53 z M 50.03,8.3 v 0 4.37 H 48.11 V 6.04 l 1.92,-0.21 v 0.61 0 q 0.64,-0.6 1.64,-0.6 v 0 0 q 1.29,0 1.98,0.78 v 0 0 Q 54.4,5.84 55.9,5.84 v 0 0 q 1.3,0 1.99,0.78 v 0 0 q 0.68,0.79 0.68,1.82 v 0 4.23 h -1.91 v -3.76 0 q 0,-0.68 -0.31,-1.06 v 0 0 q -0.31,-0.37 -1,-0.39 v 0 0 Q 54.78,7.5 54.37,8.21 v 0 0 q -0.04,0.21 -0.04,0.43 v 0 4.03 h -1.91 v -3.76 0 q 0,-0.68 -0.31,-1.06 v 0 0 q -0.31,-0.37 -1,-0.39 v 0 0 Q 50.48,7.5 50.03,8.3 Z M 61.14,7.82 60.39,6.66 v 0 q 1.3,-0.82 3.01,-0.82 v 0 0 q 1.23,0 1.94,0.68 v 0 0 q 0.72,0.69 0.72,2.05 v 0 4.1 h -1.91 v -0.54 0 q -0.84,0.54 -1.51,0.54 v 0 0 q -1.36,0 -2.05,-0.58 v 0 0 q -0.68,-0.58 -0.68,-1.6 v 0 0 q 0,-0.96 0.65,-1.71 v 0 0 Q 61.2,8.03 62.64,8.03 v 0 0 q 0.67,0 1.51,0.41 v 0 -0.21 0 Q 64.13,7.48 63.05,7.41 v 0 0 q -1.23,0 -1.91,0.41 z m 3.01,2.8 v 0 -0.77 0 Q 63.88,9.32 62.85,9.32 v 0 0 q -1.23,0.14 -1.3,0.96 v 0 0 q 0.07,0.81 1.3,0.88 v 0 0 q 1.03,0 1.3,-0.54 z m 5.54,-2.29 v 0 4.34 H 67.77 V 6.04 l 1.92,-0.21 v 0.62 0 q 0.69,-0.61 1.64,-0.61 v 0 0 q 1.3,0 1.98,0.78 v 0 0 q 0.68,0.79 0.68,1.82 v 0 4.23 h -1.91 v -3.76 0 q 0,-0.68 -0.34,-1.06 v 0 0 Q 71.39,7.48 70.7,7.46 v 0 0 Q 70.11,7.5 69.69,8.33 Z m 7.82,4.34 H 75.6 V 5.83 h 1.91 z M 75.53,4.2 v 0 0 q 0,0.41 0.27,0.68 v 0 0 q 0.28,0.27 0.76,0.27 v 0 0 q 0.47,0 0.75,-0.27 v 0 0 Q 77.58,4.61 77.58,4.2 v 0 0 q 0,-0.41 -0.27,-0.69 v 0 0 Q 77.03,3.23 76.54,3.23 v 0 0 q -0.46,0 -0.74,0.28 v 0 0 Q 75.53,3.79 75.53,4.2 Z m 4.53,3.62 -0.75,-1.16 v 0 q 1.3,-0.82 3.01,-0.82 v 0 0 q 1.23,0 1.95,0.68 v 0 0 q 0.71,0.69 0.71,2.05 v 0 4.1 h -1.91 v -0.54 0 q -0.83,0.54 -1.5,0.54 v 0 0 q -1.37,0 -2.05,-0.58 v 0 0 q -0.69,-0.58 -0.69,-1.6 v 0 0 q 0,-0.96 0.65,-1.71 v 0 0 q 0.64,-0.75 2.09,-0.75 v 0 0 q 0.66,0 1.5,0.41 v 0 -0.21 0 Q 83.06,7.48 81.98,7.41 v 0 0 q -1.23,0 -1.92,0.41 z m 3.01,2.8 v 0 -0.77 0 Q 82.8,9.32 81.77,9.32 v 0 0 q -1.23,0.14 -1.3,0.96 v 0 0 q 0.07,0.81 1.3,0.88 v 0 0 q 1.03,0 1.3,-0.54 z"
           inkscape:connector-curvature="0" />
      </g>
      <g
         transform="matrix(0.92888913,0,0,0.92888913,183.17781,-199.52453)"
         id="c3a0a99d-5b99-a49f-d46f-4168a2d07e26"
         data-v-5f19e91b=""
         style="fill:#000000;stroke:none">
        <switch
           id="switch87">
          <g
             id="g85">
            <path
               id="path83"
               d="m -155,298.8 c 11.2,0 21.7,-4.3 29.6,-12.2 7.9,-7.9 12.2,-18.4 12.2,-29.6 0,-11.2 -4.3,-21.7 -12.2,-29.6 -7.9,-7.9 -18.4,-12.2 -29.6,-12.2 -11.2,0 -21.7,4.3 -29.6,12.2 -7.9,7.9 -12.2,18.4 -12.2,29.6 0,11.2 4.3,21.7 12.2,29.6 7.9,7.9 18.4,12.2 29.6,12.2 z m 2.4,-7.1 c -0.8,0.1 -1.6,0.1 -2.4,0.1 -1.1,0 -2.2,-0.1 -3.3,-0.2 -3.6,-5.6 -6.3,-11.6 -7.9,-17.9 h 17.7 c 0.6,1.5 1.7,2.9 3,3.8 -1.7,5 -4.1,9.7 -7.1,14.2 z m 9.5,-2 c 1.9,-3.5 3.4,-7 4.6,-10.7 2.9,-0.6 5.2,-2.6 6.3,-5.3 h 7.7 c -4,7.3 -10.7,13 -18.6,16 z m 22.8,-32.7 c 0,3.3 -0.5,6.5 -1.3,9.6 h -10.8 c -0.6,-1.3 -1.6,-2.5 -2.8,-3.4 0.2,-2.2 0.3,-4.4 0.3,-6.6 0,-3.1 -0.2,-6.2 -0.6,-9.2 h 13.8 c 1,3 1.4,6.3 1.4,9.6 z m -4.2,-16.7 h -12.2 c -1.3,-5.5 -3.2,-10.7 -5.8,-15.7 7.6,2.9 14,8.6 18,15.7 z m -17.4,16.3 c 0,1.7 -0.1,3.4 -0.2,5.1 -2.8,0.6 -5.1,2.4 -6.2,4.9 h -19.3 c -0.4,-3 -0.7,-6.1 -0.7,-9.1 0,-1.9 0.1,-3.8 0.3,-5.7 2.6,-0.5 4.7,-2.2 6,-4.4 h 19.5 c 0.4,3 0.6,6.1 0.6,9.2 z m -15.7,-34.2 c 0.9,-0.1 1.8,-0.1 2.6,-0.1 1,0 2,0 3,0.1 3.6,5.6 6.3,11.6 7.9,17.9 h -17.4 c -0.6,-1.7 -1.7,-3.2 -3.1,-4.3 1.8,-4.8 4.1,-9.3 7,-13.6 z m -9.5,2 c -1.7,3.2 -3.2,6.6 -4.4,10 -3.1,0.6 -5.6,2.9 -6.6,5.8 h -7.3 c 3.9,-7.1 10.4,-12.8 18.3,-15.8 z m -22.6,32.6 c 0,-3.3 0.5,-6.6 1.4,-9.6 h 10.9 c 0.6,1.1 1.5,2.1 2.5,2.9 -0.2,2.4 -0.4,4.8 -0.4,7.2 0,3.1 0.2,6.1 0.6,9.1 h -13.6 c -1,-3.1 -1.4,-6.3 -1.4,-9.6 z m 16.2,16.6 c 1.3,5.4 3.2,10.7 5.8,15.7 -7.6,-3 -13.9,-8.6 -17.8,-15.7 z"
               inkscape:connector-curvature="0" />
          </g>
        </switch>
      </g>
    </g>
    <path
       style="fill:#ffffff;fill-opacity:1;stroke-width:1"
       d="M 114.29789,55.428719 C 100.71753,51.122544 94.239967,36.077381 100.34731,23.026294 c 5.83668,-12.472713 21.80649,-16.7432656 34.40617,-9.200698 1.52785,0.914623 2.77792,1.907526 2.77792,2.206452 0,0.298926 -1.19068,1.846289 -2.64595,3.438585 l -2.64594,2.895084 -3.16243,-1.517339 c -10.55687,-5.065199 -21.21428,0.265133 -21.98195,10.994336 -0.46528,6.502979 2.01936,11.406432 7.12759,14.066354 2.25642,1.174944 3.20208,1.35449 7.14624,1.356817 3.36639,0.002 4.97154,-0.226163 6.18718,-0.879418 l 1.6415,-0.8821 v -4.280178 -4.280178 h -3.03046 -3.03046 v -4.04061 -4.04061 h 7.57615 7.57614 V 39.613956 50.36512 l -2.85239,1.878451 c -4.20273,2.767717 -8.38326,3.900223 -14.24713,3.859551 -2.67921,-0.01858 -5.78043,-0.322064 -6.8916,-0.674403 z"
       id="path84"
       inkscape:connector-curvature="0"
       transform="matrix(0.26458333,0,0,0.26458333,1.5955182,275.98169)" />
    <path
       style="fill:#ffffff;fill-opacity:1;stroke-width:1"
       d="M 33.339594,78.285383 C 29.26351,77.701181 22.912172,75.380285 19.21197,73.122887 1.9579286,62.596653 -4.088772,40.406358 5.3119705,22.112409 7.1971278,18.443873 8.5682548,16.618981 12.004207,13.205427 20.493584,4.7713893 29.983796,1.0937449 41.566906,1.7492975 51.444188,2.3083077 59.229514,5.8278666 66.31577,12.937662 c 5.179572,5.196776 7.288008,8.480102 9.49314,14.783043 1.32973,3.800776 1.579192,5.328601 1.768161,10.829235 0.280439,8.163009 -0.590681,12.318495 -4.017169,19.163025 -2.037347,4.069662 -3.305053,5.829201 -6.648562,9.228016 -9.113111,9.263846 -20.720794,13.186258 -33.571746,11.344402 z m 10.474041,-9.142759 c 1.115661,-2.013992 2.620688,-5.049076 3.344503,-6.744637 l 1.316029,-3.082834 -1.307056,-1.410335 c -0.718881,-0.775686 -1.307056,-1.604435 -1.307056,-1.84166 0,-0.237229 -3.863834,-0.431325 -8.586297,-0.431325 -4.722463,0 -8.586297,0.0761 -8.586297,0.16912 0,1.618628 4.351922,11.839094 6.541197,15.361976 0.949689,1.528194 1.211171,1.641497 3.788301,1.641497 h 2.768202 z m 12.983841,-1.6352 c 1.432013,-0.946361 3.461283,-2.471348 4.509488,-3.38886 1.963837,-1.718981 6.27137,-7.239394 6.27137,-8.037218 0,-0.24723 -1.65563,-0.449513 -3.679172,-0.449513 -3.530782,0 -3.714346,0.05954 -4.551238,1.476283 -0.479635,0.811955 -1.747023,1.891556 -2.816426,2.399112 -1.698637,0.806203 -2.181258,1.465388 -3.818852,5.215978 -2.838629,6.501312 -2.819273,6.287291 -0.480994,5.31814 1.079187,-0.447295 3.133812,-1.587561 4.565824,-2.533922 z m -29.120167,2.498961 c 0,-0.149962 -0.473562,-1.200915 -1.052359,-2.335453 -0.578797,-1.134537 -1.804936,-4.364283 -2.724754,-7.177214 L 22.2278,55.379295 16.618796,55.236485 c -4.303002,-0.109561 -5.607874,0.008 -5.604149,0.505076 0.0082,1.095768 4.883777,7.211878 7.379006,9.256528 1.298407,1.063948 3.747932,2.682253 5.44339,3.596234 3.059367,1.649225 3.840266,1.936361 3.840266,1.412062 z M 20.878298,41.363429 c -0.01878,-7.410142 -0.06581,-7.755118 -1.239429,-9.091373 -1.181,-1.344659 -1.384173,-1.38896 -6.369995,-1.38896 H 8.1187884 L 7.5439849,33.745253 C 6.8183847,37.358283 6.805628,43.202733 7.5161097,46.5156 l 0.5469299,2.550242 h 6.4173894 6.417389 z m 25.884573,6.224343 c 0.601031,-0.812938 1.882684,-1.763701 2.848117,-2.112806 1.626937,-0.588309 1.774949,-0.821928 2.023492,-3.193886 0.147488,-1.407532 0.101819,-4.491066 -0.101485,-6.852297 l -0.36964,-4.293149 -9.021995,-0.138155 -9.021995,-0.138155 -2.204667,2.032191 c -1.212567,1.117705 -2.524163,2.032191 -2.914659,2.032191 -1.306948,0 -1.66041,3.779613 -1.003717,10.732871 l 0.321984,3.409265 h 9.17589 9.175891 z m 24.109646,0.594186 c 0.700794,-1.665996 0.881015,-11.439698 0.265605,-14.404107 l -0.60095,-2.894755 H 64.02484 57.512507 l 0.06635,7.449875 c 0.06299,7.072801 0.129032,7.532959 1.304789,9.091373 l 1.238437,1.641498 H 65.3114 c 4.463849,0 5.241293,-0.123567 5.561117,-0.883884 z M 19.135375,22.931102 c 0.673067,-1.040093 2.086572,-2.346978 3.141121,-2.904188 1.63844,-0.865731 2.206687,-1.669042 3.90623,-5.522102 1.093878,-2.479946 1.894362,-4.6034988 1.778854,-4.7190067 -0.459708,-0.4597083 -7.286943,3.5655267 -9.849247,5.8069687 -2.607884,2.281313 -7.102541,7.837439 -7.102541,8.779894 0,0.247232 1.55291,0.449513 3.450912,0.449513 3.432147,0 3.457567,-0.01028 4.674671,-1.891079 z m 30.03964,0.116065 C 48.711202,20.574836 46.386562,15.0016 44.153881,11.009193 L 42.275083,7.6495878 h -2.74086 -2.74086 l -2.247035,3.8386102 c -1.235869,2.111236 -2.742233,5.058703 -3.347477,6.549927 -1.028515,2.534097 -1.045241,2.766519 -0.255897,3.555863 0.464501,0.464501 1.195957,1.380867 1.625459,2.03637 0.76672,1.170163 0.927742,1.191823 8.860254,1.191823 h 8.079342 z m 18.403319,1.35653 c 0,-1.051268 -3.421442,-5.406128 -6.370325,-8.108247 -3.02029,-2.767549 -10.297192,-7.1978485 -10.297192,-6.269105 0,0.226344 0.779393,2.204405 1.731982,4.395691 0.952589,2.191287 2.122745,5.427754 2.600345,7.192151 l 0.868363,3.207994 h 5.733413 c 3.153378,0 5.733414,-0.188318 5.733414,-0.418484 z"
       id="path86"
       inkscape:connector-curvature="0"
       transform="matrix(0.26458333,0,0,0.26458333,1.5955182,275.98169)" />
    <path
       style="fill:#ffffff;fill-opacity:1;stroke-width:1"
       d="m 146.87531,41.489698 c 0,-14.415798 0.0455,-15.152288 0.93606,-15.152288 0.51483,0 2.33311,-0.146021 4.04061,-0.32449 l 3.10455,-0.324489 v 1.58718 c 0,1.55322 0.63737,2.093886 1.26715,1.074886 0.74991,-1.213385 4.35506,-2.518164 6.95777,-2.518164 h 2.70932 l -0.4738,3.409265 c -0.26058,1.875096 -0.61861,3.568563 -0.7956,3.763261 -0.177,0.194697 -1.21588,0.152352 -2.30862,-0.0941 -2.60399,-0.587294 -4.97906,0.392982 -6.33312,2.613901 -0.92898,1.523704 -1.01949,2.533662 -1.02121,11.39461 l -0.002,9.722718 h -4.04061 -4.04061 z"
       id="path88"
       inkscape:connector-curvature="0"
       transform="matrix(0.26458333,0,0,0.26458333,1.5955182,275.98169)" />
    <path
       style="fill:#ffffff;fill-opacity:1;stroke-width:1"
       d="m 181.72557,56.169675 c -4.59826,-1.403797 -8.91213,-5.374155 -10.31613,-9.494667 -1.01952,-2.992125 -1.01952,-8.388648 0,-11.380773 1.09638,-3.217702 4.2295,-6.60151 7.68244,-8.29712 2.48099,-1.218322 3.48901,-1.416325 7.17938,-1.410234 3.66365,0.006 4.66344,0.20331 6.81853,1.345322 3.25803,1.726481 5.97129,4.564015 7.40002,7.738965 1.59569,3.545971 1.57538,9.081807 -0.0468,12.763334 -1.57285,3.569505 -5.77931,7.410711 -9.24122,8.43879 -2.71559,0.806443 -7.33246,0.950843 -9.4762,0.296383 z m 8.98605,-7.934307 c 0.75241,-0.548036 1.8794,-1.997242 2.50444,-3.220456 3.67014,-7.182622 -2.81424,-14.717081 -10.22892,-11.88539 -6.40392,2.445679 -6.8808,12.403109 -0.74643,15.585483 2.26125,1.173084 6.53402,0.931153 8.47091,-0.479637 z"
       id="path90"
       inkscape:connector-curvature="0"
       transform="matrix(0.26458333,0,0,0.26458333,1.5955182,275.98169)" />
    <path
       style="fill:#ffffff;fill-opacity:1;stroke-width:1"
       d="m 217.08091,56.124187 c -2.88706,-0.371777 -5.06025,-1.52625 -6.83491,-3.63094 -2.58785,-3.069124 -2.76154,-4.061954 -2.76154,-15.785551 V 25.832333 h 4.0106 4.01059 l 0.15629,9.813612 c 0.14424,9.057915 0.23824,9.923265 1.22068,11.237602 1.30587,1.74703 4.2136,2.929996 6.06176,2.466136 0.74879,-0.187934 2.00868,-1.034569 2.79975,-1.881413 l 1.43831,-1.539715 V 35.880444 25.832333 h 4.04061 4.04061 V 41.23716 56.641986 h -4.04061 -4.04061 v -1.515229 c 0,-1.792755 -0.15778,-1.831313 -2.03217,-0.496628 -1.77809,1.266105 -5.08493,1.878374 -8.06936,1.494058 z"
       id="path92"
       inkscape:connector-curvature="0"
       transform="matrix(0.26458333,0,0,0.26458333,1.5955182,275.98169)" />
    <path
       style="fill:#ffffff;fill-opacity:1;stroke-width:1"
       d="m 244.4813,69.41752 -1.13642,-0.218885 V 47.768023 c 0,-20.528478 0.0394,-21.430613 0.93606,-21.430613 0.51483,0 2.33311,-0.146021 4.04061,-0.32449 2.93761,-0.307041 3.10455,-0.266303 3.10455,0.757615 0,1.317299 -0.15367,1.316697 2.79818,0.01095 3.0815,-1.363094 8.50398,-1.15346 11.63094,0.449655 4.91215,2.51833 7.96797,7.792977 7.96797,13.753481 0,6.219164 -3.21326,11.493298 -8.5075,13.963919 -3.35352,1.564962 -8.7348,1.647518 -11.61675,0.178216 -1.08975,-0.555584 -2.04694,-1.010152 -2.1271,-1.010152 -0.0802,0 -0.14574,3.522906 -0.14574,7.828682 v 7.828682 l -2.90419,-0.06878 c -1.59731,-0.03783 -3.41558,-0.167281 -4.04061,-0.287667 z m 18.06418,-21.00306 c 3.76641,-1.991721 5.15118,-6.29911 3.56764,-11.097274 -1.37038,-4.152289 -6.83591,-6.110352 -11.05202,-3.959456 -2.98877,1.524759 -3.77641,3.332875 -3.55695,8.165411 0.15205,3.34817 0.36512,4.13222 1.43917,5.295685 2.65768,2.878947 6.09518,3.450171 9.60216,1.595634 z"
       id="path94"
       inkscape:connector-curvature="0"
       transform="matrix(0.26458333,0,0,0.26458333,1.5955182,275.98169)" />
    <path
       style="fill:#ffffff;fill-opacity:1;stroke-width:1"
       d="m 289.21576,55.874034 c -3.26126,-1.044791 -7.54066,-5.050796 -9.01549,-8.439532 -1.55845,-3.580854 -1.61627,-9.233361 -0.1286,-12.57262 1.41336,-3.172484 4.3553,-6.30828 7.43533,-7.925277 2.18096,-1.144995 3.1894,-1.343681 6.85058,-1.349724 3.69037,-0.0061 4.69839,0.191912 7.17937,1.410234 3.54191,1.7393 6.62385,5.130335 7.75335,8.530947 1.07162,3.226329 0.81257,9.966331 -0.4778,12.43153 -1.42741,2.727007 -4.368,5.641628 -7.09927,7.036556 -3.19122,1.629841 -8.8988,2.03077 -12.49747,0.877886 z m 10.08726,-7.661893 c 3.54737,-2.644056 4.48684,-8.419223 1.98467,-12.200261 -1.61354,-2.438229 -4.90002,-3.883364 -7.91251,-3.479303 -7.99082,1.071793 -9.66127,12.945901 -2.3006,16.353342 2.10299,0.973527 6.50157,0.613354 8.22844,-0.673778 z"
       id="path96"
       inkscape:connector-curvature="0"
       transform="matrix(0.26458333,0,0,0.26458333,1.5955182,275.98169)" />
    <path
       style="fill:#ffffff;fill-opacity:1;stroke-width:1"
       d="m 316.58093,41.489698 c 0,-14.415798 0.0455,-15.152288 0.93607,-15.152288 0.51483,0 2.33311,-0.146021 4.04061,-0.32449 3.10129,-0.324149 3.10455,-0.323092 3.10455,1.010153 0,1.62054 0.13971,1.635004 2.06239,0.213508 1.12584,-0.832367 2.4096,-1.171604 4.98419,-1.317081 3.91372,-0.221145 6.44342,0.439471 8.58575,2.242118 0.98928,0.832431 1.57885,1.047349 1.81682,0.6623 0.19376,-0.313513 1.51769,-1.112654 2.94206,-1.77587 1.97836,-0.921166 3.45808,-1.207011 6.26778,-1.210781 5.6605,-0.0076 8.98359,1.832848 11.39061,6.30852 1.001,1.861291 1.10005,2.904823 1.25844,13.258252 l 0.17192,11.237947 h -4.33516 -4.33515 v -9.874069 c 0,-12.470552 -0.52943,-13.798162 -5.58287,-13.99968 -1.65035,-0.06581 -2.30384,0.212415 -3.64365,1.551299 l -1.63262,1.631492 -0.15516,10.345479 -0.15515,10.345479 h -3.98229 -3.98228 l -0.15571,-10.06611 c -0.14376,-9.293708 -0.23692,-10.175405 -1.2141,-11.490485 -1.50338,-2.023238 -4.30749,-2.88551 -6.45953,-1.986328 -0.91101,0.380644 -2.14911,1.318485 -2.75134,2.08409 -1.03976,1.321842 -1.09495,1.897771 -1.09495,11.425422 v 10.033411 h -4.04062 -4.04061 z"
       id="path98"
       inkscape:connector-curvature="0"
       transform="matrix(0.26458333,0,0,0.26458333,1.5955182,275.98169)" />
    <path
       style="fill:#ffffff;fill-opacity:1;stroke-width:1"
       d="m 389.81699,55.379295 c 0,-1.515162 0.13208,-1.501752 -2.59649,-0.26363 -2.92334,1.326497 -8.47432,1.361759 -11.314,0.07187 -2.5521,-1.159258 -4.63522,-3.587871 -5.0713,-5.9124 -0.98712,-5.261798 1.16113,-10.115246 5.41273,-12.228737 2.85927,-1.421355 8.36654,-1.611574 11.29027,-0.389962 2.36679,0.988909 2.27879,0.99859 2.27879,-0.250706 0,-3.950441 -5.5955,-5.167263 -12.93163,-2.81217 -0.85844,0.275583 -1.32598,-0.05735 -2.43594,-1.73462 -0.75549,-1.141613 -1.26594,-2.35624 -1.13435,-2.699172 0.47374,-1.234552 6.03916,-2.92007 10.55417,-3.196389 5.59223,-0.342244 8.52564,0.426533 10.97553,2.876429 2.7315,2.731498 3.05344,4.510765 3.05344,16.875367 v 10.92681 h -4.04061 c -3.97326,0 -4.04061,-0.02105 -4.04061,-1.26269 z m -1.1988,-6.561404 c 0.99465,-0.651724 1.1988,-1.211582 1.1988,-3.287583 0,-2.04119 -0.20933,-2.636915 -1.13642,-3.233989 -4.15566,-2.676385 -10.98541,-0.545209 -10.98541,3.427922 0,2.889634 2.84562,4.496466 7.26122,4.100183 1.35465,-0.121575 3.00246,-0.574515 3.66181,-1.006533 z"
       id="path100"
       inkscape:connector-curvature="0"
       transform="matrix(0.26458333,0,0,0.26458333,1.5955182,275.98169)" />
    <path
       style="fill:#ffffff;fill-opacity:1;stroke-width:1"
       d="m 406.48451,41.489698 c 0,-14.415798 0.0455,-15.152288 0.93606,-15.152288 0.51484,0 2.33311,-0.146021 4.04061,-0.32449 3.1013,-0.324149 3.10455,-0.323092 3.10455,1.010153 0,0.734053 0.0904,1.334642 0.20098,1.334642 0.11054,0 1.19015,-0.565473 2.39912,-1.256607 1.69524,-0.969122 2.92403,-1.257999 5.37107,-1.262691 5.3374,-0.01023 8.41701,1.835122 10.52602,6.30737 1.13668,2.410369 1.19114,3.025684 1.19585,13.51079 l 0.005,10.985409 h -4.04061 -4.04061 l -0.0285,-9.217642 c -0.0179,-5.770481 -0.25395,-9.86105 -0.63135,-10.938101 -0.80522,-2.298064 -2.69435,-3.608992 -5.35358,-3.715034 -1.91602,-0.07641 -2.38101,0.136745 -3.88974,1.783056 l -1.71358,1.869836 v 10.108942 10.108943 h -4.04061 -4.04061 z"
       id="path102"
       inkscape:connector-curvature="0"
       transform="matrix(0.26458333,0,0,0.26458333,1.5955182,275.98169)" />
    <path
       style="fill:#ffffff;fill-opacity:1;stroke-width:1"
       d="M 442.34493,41.23716 V 25.832333 h 4.04061 4.04061 V 41.23716 56.641986 h -4.04061 -4.04061 z"
       id="path104"
       inkscape:connector-curvature="0"
       transform="matrix(0.26458333,0,0,0.26458333,1.5955182,275.98169)" />
    <path
       style="fill:#ffffff;fill-opacity:1;stroke-width:1"
       d="m 442.88666,20.460919 c -1.76322,-2.24157 -1.21251,-4.814499 1.3191,-6.162839 2.95593,-1.574338 6.42242,0.425532 6.42242,3.705192 0,2.499278 -1.53624,3.788451 -4.51448,3.788451 -1.75375,0 -2.38499,-0.260318 -3.22704,-1.330804 z"
       id="path106"
       inkscape:connector-curvature="0"
       transform="matrix(0.26458333,0,0,0.26458333,1.5955182,275.98169)" />
    <path
       style="fill:#ffffff;fill-opacity:1;stroke-width:1"
       d="m 476.18504,55.379295 c 0,-1.529107 -0.0202,-1.530592 -2.63983,-0.194152 -1.77065,0.903318 -2.7378,1.034775 -6.25489,0.850176 -4.9853,-0.261662 -7.62276,-1.684981 -9.33249,-5.036329 -2.3786,-4.662443 -0.10519,-11.485674 4.64061,-13.927948 2.8706,-1.47726 8.2614,-1.687738 11.24917,-0.439211 2.48045,1.036535 2.33743,1.079698 2.33743,-0.705396 0,-1.175846 -0.37388,-1.750609 -1.6415,-2.523493 -2.33705,-1.424924 -6.07418,-1.337501 -11.29267,0.264172 -0.87767,0.269377 -1.30725,-0.08676 -2.44364,-2.025858 -0.75832,-1.29398 -1.30191,-2.420553 -1.20797,-2.503494 0.0939,-0.08294 1.07993,-0.606406 2.1911,-1.163254 3.09335,-1.550191 7.20897,-2.277277 11.72858,-2.072031 3.56811,0.162036 4.38332,0.382837 6.28708,1.702873 1.38502,0.960348 2.65057,2.441815 3.45008,4.038719 1.21362,2.423996 1.2695,2.958822 1.43767,13.75997 l 0.17497,11.237947 h -4.34185 c -4.29459,0 -4.34185,-0.01374 -4.34185,-1.262691 z m -1.19881,-6.561404 c 0.99466,-0.651724 1.19881,-1.211582 1.19881,-3.287583 0,-2.044809 -0.2077,-2.633624 -1.13643,-3.221773 -2.80935,-1.779124 -7.02713,-1.534329 -9.50627,0.551734 -2.52609,2.125561 -1.62579,5.665183 1.70022,6.684599 2.12066,0.649976 6.23112,0.264085 7.74367,-0.726977 z"
       id="path108"
       inkscape:connector-curvature="0"
       transform="matrix(0.26458333,0,0,0.26458333,1.5955182,275.98169)" />
  </g>
</svg>
